<svg xmlns="http://www.w3.org/2000/svg" width="341.32" height="54.07" viewBox="0 0 341.32 54.07"><g transform="translate(13508.25 777)"><g transform="translate(-15308.257 -2971.556)"><path d="M1824.816,2215.556a1.585,1.585,0,0,0-1.559,1.6v8.093a1.59,1.59,0,0,0,1.559,1.607h12.861a1.59,1.59,0,0,0,1.559-1.607v-8.093a1.585,1.585,0,0,0-1.559-1.6Zm0,.78h12.861a.762.762,0,0,1,.323.079l-6.272,5.956a.653.653,0,0,1-.95,0l-6.285-5.956A.764.764,0,0,1,1824.816,2216.336Zm-.767.731,4.44,4.208-4.366,4.36a.882.882,0,0,1-.085-.383v-8.093c0-.032.009-.061.012-.092Zm14.4,0a.822.822,0,0,1,.012.092v8.093a.88.88,0,0,1-.085.377l-4.354-4.36,4.427-4.2Zm-4.993,4.744,4.263,4.269h-12.928l4.269-4.263,1.188,1.12a1.471,1.471,0,0,0,2.022,0Z" transform="translate(0 0)" fill="#0b2152"/></g><g transform="translate(-15298.334 -2788.781)"><path d="M1841.259,2037.276h.164v-3.317a4.2,4.2,0,0,1,8.4,0v3.317h.123a1.949,1.949,0,0,1,1.925,1.925v7.659a1.923,1.923,0,0,1-1.925,1.925h-8.682a1.922,1.922,0,0,1-1.925-1.925V2039.2A1.949,1.949,0,0,1,1841.259,2037.276Zm1.188,0h6.307v-3.317a3.154,3.154,0,1,0-6.307,0Zm7.495,1.065h-8.682a.9.9,0,0,0-.9.86v7.659a.909.909,0,0,0,.9.9h8.682a.909.909,0,0,0,.9-.9V2039.2A.9.9,0,0,0,1849.941,2038.341Z" fill="#0b2152"/><path d="M1885.5,2129.863a1.363,1.363,0,0,1,1.351,1.352,1.434,1.434,0,0,1-.778,1.27l.164,1.925h-1.474l.164-1.925a1.434,1.434,0,0,1-.778-1.27A1.363,1.363,0,0,1,1885.5,2129.863Z" transform="translate(-39.898 -89.106)" fill="#0b2152" fill-rule="evenodd"/></g><g transform="translate(-13508 -758)"><g transform="translate(0 0)"><g transform="translate(2.893 0)"><path d="M2157.083,1468.978a3.36,3.36,0,1,1,3.36-3.36A3.364,3.364,0,0,1,2157.083,1468.978Zm0-6.16a2.8,2.8,0,1,0,2.8,2.8A2.8,2.8,0,0,0,2157.083,1462.818Z" transform="translate(-2153.723 -1462.258)" fill="#0b2152" stroke="#0b2152" stroke-linecap="round" stroke-width="0.5"/></g><g transform="translate(0 7.793)"><path d="M2135.229,1553.878h-12.507v-1.867a6.253,6.253,0,0,1,12.507,0Zm-11.946-.56h11.386v-1.307a5.693,5.693,0,1,0-11.386,0Z" transform="translate(-2122.723 -1545.758)" fill="#0b2152" stroke="#0b2152" stroke-linecap="round" stroke-width="0.5"/></g></g></g><g transform="translate(-13504 -1254.532)"><path d="M1746.783,2387.636h-1.03v-1.03a.687.687,0,0,0-.687-.687h-1.373a.687.687,0,0,0-.687.687v1.03H1738.2v-1.03a.687.687,0,0,0-.686-.687h-1.374a.687.687,0,0,0-.686.687v1.03h-1.03a1.031,1.031,0,0,0-1.03,1.03v10.645a1.031,1.031,0,0,0,1.03,1.03h12.362a1.031,1.031,0,0,0,1.03-1.03v-10.645A1.031,1.031,0,0,0,1746.783,2387.636Zm-3.09-1.03h1.373v2.06h-1.373Zm-7.555,0h1.374v2.06h-1.374Zm10.988,12.7a.344.344,0,0,1-.344.343h-12.361a.344.344,0,0,1-.343-.343v-7.554h13.048Zm0-8.241h-13.048v-2.4a.344.344,0,0,1,.343-.344h1.03v1.031h2.747v-1.03h4.807v1.03h2.747v-1.03h1.03a.344.344,0,0,1,.344.344Z" transform="translate(-1665.392 -1888.388)" fill="#0b2152"/><rect width="1.374" height="0.686" transform="translate(75.997 505.086)" fill="#0b2152"/><rect width="1.374" height="0.686" transform="translate(78.744 505.086)" fill="#0b2152"/><rect width="1.374" height="0.686" transform="translate(73.25 506.803)" fill="#0b2152"/><rect width="1.374" height="0.686" transform="translate(75.997 506.803)" fill="#0b2152"/><rect width="1.374" height="0.686" transform="translate(78.744 506.803)" fill="#0b2152"/><rect width="1.374" height="0.686" transform="translate(73.25 508.52)" fill="#0b2152"/><rect width="1.374" height="0.686" transform="translate(75.997 508.52)" fill="#0b2152"/><rect width="1.374" height="0.686" transform="translate(78.744 508.52)" fill="#0b2152"/></g><path d="M1696.635,2203.264h-3.826v-.986a1.073,1.073,0,0,0-1.072-1.072h-4a1.073,1.073,0,0,0-1.072,1.072v.986h-3.826a1.212,1.212,0,0,0-1.21,1.211v9.933a1.212,1.212,0,0,0,1.21,1.211h13.793a1.212,1.212,0,0,0,1.211-1.211v-9.933A1.212,1.212,0,0,0,1696.635,2203.264Zm-9.251-.986a.356.356,0,0,1,.356-.356h4a.357.357,0,0,1,.356.356v.986h-4.709Zm-5.036,2.2a.5.5,0,0,1,.494-.495h13.793a.5.5,0,0,1,.495.495v3.55a.718.718,0,0,1-.716.717h-4.947v-.281a.762.762,0,0,0-.761-.761h-1.752a.763.763,0,0,0-.762.761v.281h-5.127a.717.717,0,0,1-.716-.717Zm6.56,4.625h0v-.638a.046.046,0,0,1,.046-.045h1.752a.046.046,0,0,1,.045.045v.638h0v.449a.046.046,0,0,1-.045.045h-1.752a.046.046,0,0,1-.046-.045Zm7.727,5.8h-13.793a.5.5,0,0,1-.494-.495v-5.144a1.421,1.421,0,0,0,.716.194h5.128v.091a.762.762,0,0,0,.762.761h1.752a.762.762,0,0,0,.761-.761v-.091h4.946a1.422,1.422,0,0,0,.717-.194v5.144A.5.5,0,0,1,1696.635,2214.9Z" transform="translate(-15092.632 -2958.205)" fill="#0b2152"/><g transform="translate(-15233.67 -3156.623)"><g transform="translate(1850.653 2400.606)"><g transform="translate(0 0)"><path d="M1862.622,2416.211a3.636,3.636,0,1,1,3.636-3.636A3.64,3.64,0,0,1,1862.622,2416.211Zm0-6.611a2.975,2.975,0,1,0,2.975,2.975A2.978,2.978,0,0,0,1862.622,2409.6Z" transform="translate(-1858.986 -2408.94)" fill="#0b2152"/></g></g><g transform="translate(1848.67 2398.623)"><path d="M1854.289,2414.489a.331.331,0,0,1-.216-.081c-.221-.19-5.4-4.733-5.4-10.166a5.619,5.619,0,1,1,11.238,0c0,5.433-5.182,9.975-5.4,10.166A.331.331,0,0,1,1854.289,2414.489Zm0-15.2a4.963,4.963,0,0,0-4.958,4.958c0,4.523,3.977,8.545,4.958,9.468.98-.924,4.958-4.95,4.958-9.468A4.963,4.963,0,0,0,1854.289,2399.284Z" transform="translate(-1848.67 -2398.623)" fill="#0b2152"/></g></g><g transform="translate(-13343 -781)"><path d="M12.671,47.7A4.692,4.692,0,0,1,8,43.025V24.342a4.692,4.692,0,0,1,4.671-4.671h5.59l1.518-3.781a1.4,1.4,0,0,1,1.3-.89H34.156a1.4,1.4,0,0,1,1.3.89l1.518,3.781h5.59a4.692,4.692,0,0,1,4.671,4.671V43.025A4.692,4.692,0,0,1,42.564,47.7Zm0-2.8H42.564a1.834,1.834,0,0,0,1.868-1.868V24.342a1.834,1.834,0,0,0-1.868-1.868H36.025a1.4,1.4,0,0,1-1.3-.876l-1.518-3.8H22.027l-1.518,3.8a1.4,1.4,0,0,1-1.3.876H12.671A1.834,1.834,0,0,0,10.8,24.342V43.025A1.834,1.834,0,0,0,12.671,44.893Zm14.947-2.335a8.874,8.874,0,1,1,8.875-8.874A8.9,8.9,0,0,1,27.617,42.558Zm0-2.8a6.072,6.072,0,1,0-6.072-6.072A6.051,6.051,0,0,0,27.617,39.755Z" fill="#0b2152"/></g><g transform="translate(-13371 -772)"><path d="M10.087,29.608A2.1,2.1,0,0,1,8,27.521V19.174a2.1,2.1,0,0,1,2.087-2.087h2.5l.678-1.689a.626.626,0,0,1,.58-.4h5.843a.626.626,0,0,1,.58.4l.678,1.689h2.5a2.1,2.1,0,0,1,2.087,2.087v8.347a2.1,2.1,0,0,1-2.087,2.087Zm0-1.252H23.443a.819.819,0,0,0,.835-.835V19.174a.819.819,0,0,0-.835-.835H20.521a.626.626,0,0,1-.58-.391l-.678-1.7h-5l-.678,1.7a.626.626,0,0,1-.58.391H10.087a.819.819,0,0,0-.835.835v8.347A.82.82,0,0,0,10.087,28.356Zm6.678-1.043a3.965,3.965,0,1,1,3.965-3.965A3.974,3.974,0,0,1,16.765,27.312Zm0-1.252a2.713,2.713,0,1,0-2.713-2.713A2.7,2.7,0,0,0,16.765,26.06Z" fill="#0b2152"/></g><g transform="translate(-14714.67 -2630.506)"><g transform="translate(1444.064 1870.424)"><path d="M1510.063,1958.333a1.686,1.686,0,0,1-1.192-.494l-6.745-6.745a1.686,1.686,0,0,1,2.385-2.384L1510,1954.2l13.987-15.542a1.686,1.686,0,0,1,2.507,2.256h0l-15.176,16.863a1.69,1.69,0,0,1-1.209.558Z" transform="translate(-1501.643 -1938.098)" fill="#0b2152"/></g><g transform="translate(1429.67 1853.506)"><path d="M1456.705,1907.576a27.035,27.035,0,1,1,27.035-27.035A27.066,27.066,0,0,1,1456.705,1907.576Zm0-51.47a24.435,24.435,0,1,0,24.435,24.435A24.463,24.463,0,0,0,1456.705,1856.106Z" transform="translate(-1429.67 -1853.506)" fill="#0b2152"/></g></g><g transform="translate(-1200 1008.855)"><g transform="translate(-13450.67 -3639.361)"><g transform="translate(1429.67 1853.506)"><path d="M1456.705,1907.576a27.035,27.035,0,1,1,27.035-27.035A27.066,27.066,0,0,1,1456.705,1907.576Zm0-51.47a24.435,24.435,0,1,0,24.435,24.435A24.463,24.463,0,0,0,1456.705,1856.106Z" transform="translate(-1429.67 -1853.506)" fill="#0a2952"/></g></g><path d="M143.582,26.53a3.548,3.548,0,0,1-1.872-.351,1.287,1.287,0,0,1-.515-1.147l-1-19.469q0-1.5,2.808-1.5h2.012a5.226,5.226,0,0,1,2.083.328,1.052,1.052,0,0,1,.725.983l-1.34,19.656a1.587,1.587,0,0,1-.562,1.147,3.281,3.281,0,0,1-1.825.351Zm-.515,10.483q-2.808,0-2.808-1.5V31.21q0-1.5,2.808-1.5h1.5q2.808,0,2.808,1.5v4.306q0,1.5-2.808,1.5Z" transform="translate(-12137.727 -1779.49)" fill="#e30101"/></g></g></svg>