<svg xmlns="http://www.w3.org/2000/svg" xmlns:xlink="http://www.w3.org/1999/xlink" width="150" height="60" viewBox="0 0 150 60"><defs><clipPath id="a"><rect width="150" height="60"/></clipPath></defs><g transform="translate(13485 630)"><g transform="translate(-13485 -630)"><g clip-path="url(#a)"><path d="M15,2A13,13,0,1,0,28,15h0A12.974,12.974,0,0,0,15,2Zm2.9,7.4A1.6,1.6,0,1,1,16.3,11a1.58,1.58,0,0,1,1.6-1.6Zm3.2,10.7H8.9a.9.9,0,0,1-.9-.9.764.764,0,0,1,.2-.5l4.5-6.3a.948.948,0,0,1,1.3-.2c.1.1.2.1.2.2l2.6,3.7c.1.1.3.2.4.1a.1.1,0,0,0,.1-.1l.6-.8a.948.948,0,0,1,1.3-.2c.1.1.2.1.2.2l2.5,3.5a.948.948,0,0,1-.2,1.3C21.5,20,21.3,20.1,21.1,20.1Z" fill="#646464"/><path d="M15,32A13,13,0,1,0,28,45h0A12.974,12.974,0,0,0,15,32Zm2.9,7.4A1.6,1.6,0,1,1,16.3,41a1.58,1.58,0,0,1,1.6-1.6Zm3.2,10.7H8.9a.9.9,0,0,1-.9-.9.764.764,0,0,1,.2-.5l4.5-6.3a.948.948,0,0,1,1.3-.2c.1.1.2.1.2.2l2.6,3.7c.1.1.3.2.4.1a.1.1,0,0,0,.1-.1l.6-.8a.948.948,0,0,1,1.3-.2c.1.1.2.1.2.2l2.5,3.5a.948.948,0,0,1-.2,1.3C21.5,50,21.3,50.1,21.1,50.1Z" fill="#3e54d3"/><g transform="translate(36.073 5.077)"><path d="M9.6,0,.1,7.1a.52.52,0,0,0-.2.4V20.2a.472.472,0,0,0,.5.5H6.8a.472.472,0,0,0,.5-.5V12.6h5.2v7.6a.472.472,0,0,0,.5.5h6.4a.472.472,0,0,0,.5-.5V7.5a.52.52,0,0,0-.2-.4L10.1,0A.446.446,0,0,0,9.6,0Zm.2,1,9,6.7v12H13.4V12.1a.472.472,0,0,0-.5-.5H6.8a.472.472,0,0,0-.5.5v7.6H.9V7.7Z" fill="#646464"/></g><g transform="translate(36.073 35.077)"><path d="M9.6,0,.1,7.1a.52.52,0,0,0-.2.4V20.2a.472.472,0,0,0,.5.5H6.8a.472.472,0,0,0,.5-.5V12.6h5.2v7.6a.472.472,0,0,0,.5.5h6.4a.472.472,0,0,0,.5-.5V7.5a.52.52,0,0,0-.2-.4L10.1,0A.446.446,0,0,0,9.6,0Zm.2,1,9,6.7v12H13.4V12.1a.472.472,0,0,0-.5-.5H6.8a.472.472,0,0,0-.5.5v7.6H.9V7.7Z" fill="#3e54d3"/></g><g transform="translate(66 6)"><path d="M19.2,18.1,14.1,13A7.958,7.958,0,1,0,2.9,14.1a7.844,7.844,0,0,0,10,0L18,19.2a.829.829,0,0,0,1.2-1.1ZM3.4,12.4a6.525,6.525,0,0,1,0-9,6.364,6.364,0,0,1,9,9h0a6.249,6.249,0,0,1-9,0Z" fill="#646464"/></g><g transform="translate(66 36)"><path d="M19.2,18.1,14.1,13A7.958,7.958,0,1,0,2.9,14.1a7.844,7.844,0,0,0,10,0L18,19.2a.829.829,0,0,0,1.2-1.1ZM3.4,12.4a6.525,6.525,0,0,1,0-9,6.364,6.364,0,0,1,9,9h0a6.249,6.249,0,0,1-9,0Z" fill="#3e54d3"/></g><g transform="translate(92 5)"><path d="M26.2,0H.5A.472.472,0,0,0,0,.5V18.3a.472.472,0,0,0,.5.5H26.2a.472.472,0,0,0,.5-.5V.5A.472.472,0,0,0,26.2,0Zm-.5,17.8H1V1H25.7Z" fill="#646464"/><path d="M20.3,19.8H7.4a.5.5,0,0,0,0,1H20.3a.472.472,0,0,0,.5-.5.536.536,0,0,0-.5-.5Z" fill="#646464"/><path d="M10.1,12.8a.446.446,0,0,0,.5,0l5.9-3a.574.574,0,0,0,.2-.7.215.215,0,0,0-.2-.2l-5.9-3a.663.663,0,0,0-.7.2c0,.1-.1.1-.1.2v5.9A1.628,1.628,0,0,0,10.1,12.8Zm.8-5.6,4.3,2.2-4.3,2.2Z" fill="#646464"/></g><g transform="translate(92 35)"><path d="M26.2,0H.5A.472.472,0,0,0,0,.5V18.3a.472.472,0,0,0,.5.5H26.2a.472.472,0,0,0,.5-.5V.5A.472.472,0,0,0,26.2,0Zm-.5,17.8H1V1H25.7Z" fill="#3e54d3"/><path d="M20.3,19.8H7.4a.5.5,0,0,0,0,1H20.3a.472.472,0,0,0,.5-.5.536.536,0,0,0-.5-.5Z" fill="#3e54d3"/><path d="M10.1,12.8a.446.446,0,0,0,.5,0l5.9-3a.574.574,0,0,0,.2-.7.215.215,0,0,0-.2-.2l-5.9-3a.663.663,0,0,0-.7.2c0,.1-.1.1-.1.2v5.9A1.628,1.628,0,0,0,10.1,12.8Zm.8-5.6,4.3,2.2-4.3,2.2Z" fill="#3e54d3"/></g><g transform="translate(127 6)"><path d="M11.1,19.4H.5a.472.472,0,0,1-.5-.5V.5A.472.472,0,0,1,.5,0H11.1a.472.472,0,0,1,.5.5.472.472,0,0,1-.5.5H1.1V18.2h10a.472.472,0,0,1,.5.5c0,.4-.2.7-.5.7Z" fill="#646464"/><path d="M16.1,9.2H5.5L8.6,6a.6.6,0,0,0,0-.8c-.2-.3-.5-.2-.8,0h0l-4,4a.6.6,0,0,0,0,.8h0l4,4a.6.6,0,0,0,.8,0c.3-.2.2-.5,0-.8h0L5.5,10.1H16.1a.472.472,0,0,0,.5-.5.458.458,0,0,0-.5-.4Z" fill="#646464"/></g><g transform="translate(127 36)"><path d="M11.1,19.4H.5a.472.472,0,0,1-.5-.5V.5A.472.472,0,0,1,.5,0H11.1a.472.472,0,0,1,.5.5.472.472,0,0,1-.5.5H1.1V18.2h10a.472.472,0,0,1,.5.5c0,.4-.2.7-.5.7Z" fill="#3e54d3"/><path d="M16.1,9.2H5.5L8.6,6a.6.6,0,0,0,0-.8c-.2-.3-.5-.2-.8,0h0l-4,4a.6.6,0,0,0,0,.8h0l4,4a.6.6,0,0,0,.8,0c.3-.2.2-.5,0-.8h0L5.5,10.1H16.1a.472.472,0,0,0,.5-.5.458.458,0,0,0-.5-.4Z" fill="#3e54d3"/></g></g></g></g></svg>