<?xml version="1.0" encoding="utf-8"?>
<!-- Generator: Adobe Illustrator 24.3.0, SVG Export Plug-In . SVG Version: 6.00 Build 0)  -->
<svg version="1.1" id="Capa_1" xmlns="http://www.w3.org/2000/svg" xmlns:xlink="http://www.w3.org/1999/xlink" x="0px" y="0px"
	 viewBox="0 0 240 60" style="enable-background:new 0 0 240 60;" xml:space="preserve">
<style type="text/css">
	.st0{clip-path:url(#SVGID_2_);}
	.st1{fill:#838383;}
	.st2{fill:#24338A;}
	.st3{fill:#838383;stroke:#838383;stroke-width:0.3;stroke-linecap:round;}
	.st4{fill:#24338A;stroke:#24338A;stroke-width:0.3;stroke-linecap:round;}
	.st5{fill:#EFAC25;}
	.st6{fill:#00A8CC;stroke:#00A8CC;stroke-width:0.5;}
	.st7{fill:#FFFFFF;}
	.st8{fill-rule:evenodd;clip-rule:evenodd;fill:#FFFFFF;}
</style>
<g>
	<g>
		<g>
			<g>
				<defs>
					<rect id="SVGID_1_" width="240" height="60"/>
				</defs>
				<clipPath id="SVGID_2_">
					<use xlink:href="#SVGID_1_"  style="overflow:visible;"/>
				</clipPath>
				<g id="a" class="st0">
					<g transform="translate(7 7)">
						<path class="st1" d="M8,0C3.6,0,0,3.6,0,8s3.6,8,8,8s8-3.6,8-8l0,0C16,3.6,12.4,0,8,0z M8,1.1c3.8,0,6.9,3.1,6.9,6.9
							s-3.1,6.9-6.9,6.9S1.1,11.8,1.1,8l0,0C1.1,4.2,4.2,1.1,8,1.1L8,1.1z"/>
						<path class="st1" d="M8.1,3.6c-0.3,0-0.5,0.3-0.5,0.6l0,0V8c0,0.1,0.1,0.3,0.2,0.4l2.7,2.7c0.2,0.2,0.5,0.2,0.8,0
							c0.2-0.2,0.2-0.5,0-0.8l0,0l0,0L8.6,7.7V4.1C8.6,3.8,8.4,3.6,8.1,3.6L8.1,3.6L8.1,3.6z"/>
					</g>
					<g transform="translate(7 37)">
						<path class="st2" d="M8,0C3.6,0,0,3.6,0,8s3.6,8,8,8s8-3.6,8-8l0,0C16,3.6,12.4,0,8,0z M8,1.1c3.8,0,6.9,3.1,6.9,6.9
							s-3.1,6.9-6.9,6.9S1.1,11.8,1.1,8l0,0C1.1,4.2,4.2,1.1,8,1.1L8,1.1z"/>
						<path class="st2" d="M8.1,3.6c-0.3,0-0.5,0.3-0.5,0.6l0,0V8c0,0.1,0.1,0.3,0.2,0.4l2.7,2.7c0.2,0.2,0.5,0.2,0.8,0
							c0.2-0.2,0.2-0.5,0-0.8l0,0l0,0L8.6,7.7V4.1C8.6,3.8,8.4,3.6,8.1,3.6L8.1,3.6L8.1,3.6z"/>
					</g>
					<g transform="translate(-2069.997 -1717.571)">
						<g transform="translate(2108.997 1724.571)">
							<path class="st1" d="M10.3,0H1.7C0.8,0,0,0.8,0,1.7V13c0,1,0.8,1.7,1.7,1.7h0.9v0.9C2.6,15.8,2.8,16,3,16
								c0.1,0,0.1,0,0.2-0.1l1.3-0.8l1.4,0.8C6.1,16,6.3,16,6.4,15.8c0-0.1,0.1-0.1,0.1-0.2v-0.9h3.8c1,0,1.7-0.8,1.7-1.7V1.7
								C12,0.8,11.2,0,10.3,0z M0.8,1.7c0-0.5,0.4-1,1-1h0.4v9.4c0,0.1,0,0.1,0,0.2H1.6c-0.3,0-0.6,0.1-0.9,0.3L0.8,1.7L0.8,1.7z
								 M5.7,15l-1-0.6c-0.1-0.1-0.3-0.1-0.4,0l-1,0.6v-2h2.3L5.7,15z M11.2,13c0,0.5-0.4,1-1,1H6.5v-1.1h3.9c0.3,0,0.6-0.1,0.9-0.3
								L11.2,13L11.2,13z M11.2,11.3c0,0.5-0.4,0.9-0.9,0.9h-8c-0.2,0-0.4,0.2-0.4,0.4S2.1,13,2.3,13h0.3v1H1.7c-0.5,0-1-0.4-1-1
								v-1.1c0-0.5,0.4-0.9,0.9-0.9h8.7c0.3,0,0.6-0.1,0.9-0.3V11.3z M11.2,7.6v1.8c0,0.5-0.4,0.9-0.9,0.9H2.9c0,0,0-0.1,0-0.2V0.7
								h7.4c0.5,0,1,0.4,1,1L11.2,7.6z"/>
						</g>
					</g>
					<g transform="translate(-2069.997 -1687.571)">
						<g transform="translate(2108.997 1724.571)">
							<path class="st2" d="M10.3,0H1.7C0.8,0,0,0.8,0,1.7V13c0,1,0.8,1.7,1.7,1.7h0.9v0.9C2.6,15.8,2.8,16,3,16
								c0.1,0,0.1,0,0.2-0.1l1.3-0.8l1.4,0.8C6.1,16,6.3,16,6.4,15.8c0-0.1,0.1-0.1,0.1-0.2v-0.9h3.8c1,0,1.7-0.8,1.7-1.7V1.7
								C12,0.8,11.2,0,10.3,0z M0.8,1.7c0-0.5,0.4-1,1-1h0.4v9.4c0,0.1,0,0.1,0,0.2H1.6c-0.3,0-0.6,0.1-0.9,0.3L0.8,1.7L0.8,1.7z
								 M5.7,15l-1-0.6c-0.1-0.1-0.3-0.1-0.4,0l-1,0.6v-2h2.3L5.7,15z M11.2,13c0,0.5-0.4,1-1,1H6.5v-1.1h3.9c0.3,0,0.6-0.1,0.9-0.3
								L11.2,13L11.2,13z M11.2,11.3c0,0.5-0.4,0.9-0.9,0.9h-8c-0.2,0-0.4,0.2-0.4,0.4S2.1,13,2.3,13h0.3v1H1.7c-0.5,0-1-0.4-1-1
								v-1.1c0-0.5,0.4-0.9,0.9-0.9h8.7c0.3,0,0.6-0.1,0.9-0.3V11.3z M11.2,7.6v1.8c0,0.5-0.4,0.9-0.9,0.9H2.9c0,0,0-0.1,0-0.2V0.7
								h7.4c0.5,0,1,0.4,1,1L11.2,7.6z"/>
						</g>
					</g>
					<g transform="translate(-1963.81 -1455.258)">
						<g transform="translate(2032.81 1462.258)">
							<g transform="translate(2.776 0)">
								<path class="st3" d="M3.2,6.4C1.4,6.4,0,5,0,3.2S1.4,0,3.2,0s3.2,1.4,3.2,3.2S5,6.4,3.2,6.4z M3.2,0.5
									c-1.5,0-2.7,1.2-2.7,2.7s1.2,2.7,2.7,2.7s2.7-1.2,2.7-2.7l0,0C5.9,1.7,4.7,0.5,3.2,0.5L3.2,0.5z"/>
							</g>
							<g transform="translate(0 7.478)">
								<path class="st3" d="M12,7.8H0V6c0-3.3,2.7-6,6-6s6,2.7,6,6V7.8z M0.5,7.3h10.9V6C11.4,3,9,0.5,6,0.5S0.5,2.9,0.5,5.9V6V7.3
									z"/>
							</g>
						</g>
					</g>
					<g transform="translate(-1963.81 -1425.258)">
						<g transform="translate(2032.81 1462.258)">
							<g transform="translate(2.776 0)">
								<path class="st4" d="M3.2,6.4C1.4,6.4,0,5,0,3.2S1.4,0,3.2,0s3.2,1.4,3.2,3.2S5,6.4,3.2,6.4z M3.2,0.5
									c-1.5,0-2.7,1.2-2.7,2.7s1.2,2.7,2.7,2.7s2.7-1.2,2.7-2.7l0,0C5.9,1.7,4.7,0.5,3.2,0.5L3.2,0.5z"/>
							</g>
							<g transform="translate(0 7.478)">
								<path class="st4" d="M12,7.8H0V6c0-3.3,2.7-6,6-6s6,2.7,6,6V7.8z M0.5,7.3h10.9V6C11.4,3,9,0.5,6,0.5S0.5,2.9,0.5,5.9V6V7.3
									z"/>
							</g>
						</g>
					</g>
					<g transform="translate(-1902.473 -1731.257)">
						<path class="st1" d="M2001,1749.8h2.8l4.4,4.4c0.2,0.2,0.5,0.2,0.7,0c0.1-0.1,0.1-0.2,0.1-0.4v-15c0-0.3-0.2-0.5-0.5-0.5
							c-0.1,0-0.3,0.1-0.4,0.1l-4.4,4.4h-2.8c-0.3,0-0.5,0.2-0.5,0.5v6C2000.5,1749.5,2000.7,1749.8,2001,1749.8z M2001.5,1743.8
							h2.5c0.1,0,0.3-0.1,0.4-0.1l3.6-3.6v12.6l-3.6-3.6c-0.1-0.1-0.2-0.1-0.4-0.1h-2.5V1743.8z"/>
						<path class="st1" d="M2010.5,1748.3c-0.3,0-0.5,0.2-0.5,0.5s0.2,0.5,0.5,0.5c1.7,0,3-1.3,3-3s-1.3-3-3-3
							c-0.3,0-0.5,0.2-0.5,0.5s0.2,0.5,0.5,0.5c1.1,0,2,0.9,2,2S2011.6,1748.3,2010.5,1748.3z"/>
						<path class="st1" d="M2010.5,1751.8c3,0,5.5-2.5,5.5-5.5s-2.5-5.5-5.5-5.5c-0.3,0-0.5,0.2-0.5,0.5s0.2,0.5,0.5,0.5
							c2.5,0,4.5,2,4.5,4.5s-2,4.5-4.5,4.5c-0.3,0-0.5,0.2-0.5,0.5S2010.2,1751.8,2010.5,1751.8z"/>
					</g>
					<g transform="translate(-1902.473 -1701.257)">
						<path class="st2" d="M2001,1749.8h2.8l4.4,4.4c0.2,0.2,0.5,0.2,0.7,0c0.1-0.1,0.1-0.2,0.1-0.4v-15c0-0.3-0.2-0.5-0.5-0.5
							c-0.1,0-0.3,0.1-0.4,0.1l-4.4,4.4h-2.8c-0.3,0-0.5,0.2-0.5,0.5v6C2000.5,1749.5,2000.7,1749.8,2001,1749.8z M2001.5,1743.8
							h2.5c0.1,0,0.3-0.1,0.4-0.1l3.6-3.6v12.6l-3.6-3.6c-0.1-0.1-0.2-0.1-0.4-0.1h-2.5V1743.8z"/>
						<path class="st2" d="M2010.5,1748.3c-0.3,0-0.5,0.2-0.5,0.5s0.2,0.5,0.5,0.5c1.7,0,3-1.3,3-3s-1.3-3-3-3
							c-0.3,0-0.5,0.2-0.5,0.5s0.2,0.5,0.5,0.5c1.1,0,2,0.9,2,2S2011.6,1748.3,2010.5,1748.3z"/>
						<path class="st2" d="M2010.5,1751.8c3,0,5.5-2.5,5.5-5.5s-2.5-5.5-5.5-5.5c-0.3,0-0.5,0.2-0.5,0.5s0.2,0.5,0.5,0.5
							c2.5,0,4.5,2,4.5,4.5s-2,4.5-4.5,4.5c-0.3,0-0.5,0.2-0.5,0.5S2010.2,1751.8,2010.5,1751.8z"/>
					</g>
					<g transform="translate(126.949 7)">
						<path class="st5" d="M13.1,16c0.3,0,0.6-0.3,0.5-0.6c0,0,0,0,0-0.1l-0.7-5l3.5-3.7c0.2-0.2,0.2-0.6,0-0.8
							c-0.1-0.1-0.2-0.1-0.3-0.2l-4.9-0.8L8.8,0.3C8.6,0,8.3-0.1,8,0.1l0,0c-0.1,0-0.2,0.1-0.2,0.2L5.5,4.8l-5,0.9
							C0.2,5.7-0.1,6,0,6.3c0,0.1,0.1,0.2,0.2,0.3l3.5,3.6L3,15.3c0,0.3,0.2,0.6,0.5,0.6c0.1,0,0.2,0,0.3-0.1l4.4-2.2l4.6,2.3
							C12.9,16,13,16,13.1,16z"/>
					</g>
					<g transform="translate(126.949 37)">
						<path class="st5" d="M13.1,16c0.3,0,0.6-0.3,0.5-0.6c0,0,0,0,0-0.1l-0.7-5l3.5-3.7c0.2-0.2,0.2-0.6,0-0.8
							c-0.1-0.1-0.2-0.1-0.3-0.2l-4.9-0.8L8.8,0.3C8.6,0,8.3-0.1,8,0.1l0,0c-0.1,0-0.2,0.1-0.2,0.2L5.5,4.8l-5,0.9
							C0.2,5.7-0.1,6,0,6.3c0,0.1,0.1,0.2,0.2,0.3l3.5,3.6L3,15.3c0,0.3,0.2,0.6,0.5,0.6c0.1,0,0.2,0,0.3-0.1l4.4-2.2l4.6,2.3
							C12.9,16,13,16,13.1,16z M12.3,14.4l-3.9-1.9c-0.2-0.1-0.3-0.1-0.5,0l-3.7,1.9l0.6-4.3c0-0.2,0-0.4-0.2-0.5l-2.9-3L6,5.8
							c0.2,0,0.3-0.1,0.4-0.3l1.9-3.7l2,3.8c0.1,0.2,0.2,0.3,0.4,0.3l4.1,0.7l-3,3.1c-0.1,0.1-0.2,0.3-0.1,0.5L12.3,14.4z"/>
					</g>
					<path class="st6" d="M169.1,7.1c-1.6,0-3,0.8-3.9,2.1c-0.9-1.3-2.4-2.1-3.9-2.1c-2.7,0-4.9,2.3-4.9,5c0,6,8.3,10.8,8.7,10.9
						l0,0c0.1,0.1,0.2,0.1,0.3,0c0.4-0.2,8.7-4.9,8.7-10.9C174,9.3,171.8,7.1,169.1,7.1z M161.2,7.7c1.5,0,2.9,0.8,3.7,2.2
						c0.1,0.2,0.3,0.2,0.5,0.1c0.1,0,0.1-0.1,0.1-0.1c0.7-1.3,2.1-2.2,3.6-2.2c2.4,0,4.2,2,4.2,4.3c0,5.2-7,9.6-8.2,10.3
						c-1.1-0.7-8.2-5.1-8.2-10.3C157,9.7,158.8,7.8,161.2,7.7z"/>
					<g transform="translate(-990.002 -2424.79)">
						<path class="st2" d="M1188.5,2431.8c-1.5,0-2.7,1.2-2.7,2.7c0,0.3,0,0.5,0.1,0.7l-4,2.5c-1.2-0.9-2.8-0.7-3.7,0.4
							c-0.9,1.2-0.7,2.8,0.4,3.7c1,0.8,2.4,0.8,3.3,0l4,2.5c-0.1,0.2-0.1,0.5-0.1,0.8c0,1.5,1.2,2.7,2.7,2.7s2.7-1.2,2.7-2.7
							s-1.2-2.7-2.7-2.7c-0.8,0-1.6,0.4-2.1,1l-3.8-2.4c0.4-0.8,0.4-1.7,0-2.5c1.2-0.8,2.5-1.6,3.8-2.4c0.9,1.1,2.6,1.3,3.8,0.4
							c1.1-0.9,1.3-2.6,0.4-3.8C1190.1,2432.1,1189.3,2431.8,1188.5,2431.8L1188.5,2431.8z M1188.5,2432.9c0.9,0,1.6,0.7,1.6,1.6
							c0,0.9-0.7,1.6-1.6,1.6s-1.6-0.7-1.6-1.6C1186.9,2433.6,1187.6,2432.9,1188.5,2432.9L1188.5,2432.9z M1180.4,2438.2
							c0.9,0,1.6,0.7,1.6,1.6c0,0.9-0.7,1.6-1.6,1.6s-1.6-0.7-1.6-1.6C1178.7,2438.9,1179.5,2438.2,1180.4,2438.2
							C1180.3,2438.2,1180.3,2438.2,1180.4,2438.2L1180.4,2438.2z M1188.5,2443.5c0.9,0,1.6,0.7,1.6,1.6c0,0.9-0.7,1.6-1.6,1.6
							s-1.6-0.7-1.6-1.6S1187.6,2443.5,1188.5,2443.5L1188.5,2443.5z"/>
					</g>
					<path class="st2" d="M232.3,14h-13.1l3.8-3.8c0.3-0.3,0.2-0.7,0-0.9c-0.3-0.2-0.7-0.2-0.9,0l-5,5c-0.3,0.3-0.3,0.7,0,0.9l5,5
						c0.3,0.3,0.7,0.2,0.9,0c0.2-0.3,0.2-0.7,0-0.9l-3.8-3.8h13.1c0.4,0,0.7-0.3,0.7-0.7C233,14.3,232.7,14,232.3,14L232.3,14z"/>
				</g>
			</g>
		</g>
	</g>
</g>
<path class="st7" d="M171.6,36.4h-13.3c-0.6,0-1.1,0.5-1.1,1.1v13.8c0,0.6,0.5,1.1,1.1,1.1h6.7v-6.8v-0.1h-1.3
	c-0.1,0-0.2-0.1-0.2-0.2v-2.1c0-0.1,0.1-0.2,0.2-0.2h1.3v-2c0-1.4,1.1-2.6,2.6-2.6h2.4c0.1,0,0.2,0.1,0.2,0.2v2.1l0,0
	c0,0.1-0.1,0.2-0.2,0.2h-1.4c-0.3,0-0.6,0.3-0.6,0.6V43h2l0,0c0.1,0,0.2,0.1,0.2,0.2l-0.2,2.1c0,0.1-0.1,0.2-0.2,0.2H168v6.9h3.7
	c0.6,0,1.1-0.5,1.1-1.1V37.5C172.7,36.9,172.2,36.4,171.6,36.4z"/>
<g id="Grupo_272" transform="translate(-2121.566 -2005.455)">
	<g id="Grupo_267" transform="translate(2121.566 2005.455)">
		<path id="Trazado_72" class="st7" d="M203.1,38.6c-0.6,0.3-1.2,0.4-1.9,0.5c0.3-0.1,0.7-0.6,0.9-0.8c0.3-0.3,0.5-0.7,0.6-1.1v-0.1
			h-0.1c-0.7,0.4-1.4,0.7-2.2,0.8c-0.1,0-0.1,0-0.2,0c-0.1-0.1-0.1-0.1-0.2-0.2c-0.3-0.3-0.7-0.5-1.1-0.7c-0.5-0.2-1.1-0.3-1.6-0.3
			s-1.1,0.2-1.6,0.4c-0.5,0.3-0.9,0.6-1.3,1c-0.4,0.4-0.6,1-0.8,1.5c-0.1,0.5-0.1,1.1,0,1.6c0,0.1,0,0.1-0.1,0.1
			c-2.9-0.3-5.6-1.7-7.6-3.9c-0.1-0.1-0.1-0.1-0.2,0c-0.8,1.5-0.5,3.3,0.7,4.6c0.1,0.1,0.3,0.3,0.5,0.4c-0.5,0-1-0.2-1.5-0.4
			c-0.1-0.1-0.1,0-0.1,0.1s0,0.3,0,0.4c0.2,1.4,1.1,2.6,2.4,3.1c0.2,0.1,0.3,0.1,0.5,0.1c-0.5,0.1-1,0.1-1.4,0c-0.1,0-0.1,0-0.1,0.1
			c0.5,1.3,1.6,2.3,3,2.5c0.1,0,0.3,0,0.4,0.1l0,0c-0.3,0.5-1.5,0.9-2.1,1.1c-1,0.4-2.1,0.5-3.1,0.4c-0.2,0-0.2,0-0.2,0V50
			c0.2,0.1,0.4,0.3,0.7,0.4c0.7,0.4,1.4,0.6,2.1,0.8c3.8,1.1,7.9,0.2,10.8-2.5c2.2-2.2,3-5.2,3-8.3c0-0.1,0.1-0.2,0.2-0.2
			c0.6-0.4,1.1-1,1.5-1.5C203.1,38.8,203.2,38.7,203.1,38.6L203.1,38.6C203.2,38.5,203.2,38.5,203.1,38.6z"/>
	</g>
	<g id="Grupo_268" transform="translate(2128.692 2025.138)">
		<path id="Trazado_73" class="st8" d="M183.1,32.2"/>
	</g>
	<g id="Grupo_269" transform="translate(2128.51 2025.138)">
		<path id="Trazado_74" class="st8" d="M183.3,32.2C183.2,32.2,182.9,32.2,183.3,32.2z"/>
	</g>
	<g id="Grupo_270" transform="translate(2129.501 2025.141)">
		<path id="Trazado_75" class="st8" d="M182.9,32.2C182.9,32.1,183.2,32.2,182.9,32.2L182.9,32.2z"/>
	</g>
	<g id="Grupo_271" transform="translate(2137.89 2005.484)">
		<path id="Trazado_76" class="st8" d="M181,36.7L181,36.7L181,36.7z"/>
	</g>
</g>
</svg>
