<?xml version="1.0" encoding="utf-8"?>
<!-- Generator: Adobe Illustrator 24.3.0, SVG Export Plug-In . SVG Version: 6.00 Build 0)  -->
<svg version="1.1" id="Capa_1" xmlns="http://www.w3.org/2000/svg" xmlns:xlink="http://www.w3.org/1999/xlink" x="0px" y="0px"
	 viewBox="0 0 526.4 126.2" style="enable-background:new 0 0 526.4 126.2;" xml:space="preserve">
<style type="text/css">
	.st0{fill:#FFFFFF;}
	.st1{fill-rule:evenodd;clip-rule:evenodd;fill:#FFFFFF;}
	.st2{fill:#3E54D3;}
	.st3{fill-rule:evenodd;clip-rule:evenodd;fill:#3E54D3;}
	.st4{fill:#646464;}
	.st5{fill:none;stroke:#0B2152;stroke-width:1.5;stroke-linecap:round;}
	.st6{fill:#0B2152;}
	.st7{fill:#15CDCA;}
	.st8{fill:#D41010;}
	.st9{fill:none;stroke:#D41010;stroke-width:3;stroke-linecap:round;}
	.st10{fill:none;}
	.st11{fill:none;stroke:#0B2152;}
	.st12{fill:#0B2152;stroke:#0B2152;stroke-width:0.5;stroke-linecap:round;}
	.st13{fill:#0B2152;stroke:#0B2152;stroke-width:2;}
	.st14{fill:#B4B4B4;stroke:#B4B4B4;stroke-width:2;}
	.st15{fill:#838383;}
</style>
<g>
	<g transform="translate(13508.25 777)">
		<g transform="translate(-15298.334 -2788.781)">
			<path class="st0" d="M1808.8,2046.6h0.2v-3.3c0-2.3,1.9-4.2,4.2-4.2c2.3,0,4.2,1.9,4.2,4.2v3.3h0.1c1.1,0,1.9,0.9,1.9,1.9v7.7
				c0,1.1-0.9,1.9-1.9,1.9l0,0h-8.7c-1.1,0-1.9-0.9-1.9-1.9l0,0v-7.7C1806.8,2047.5,1807.7,2046.7,1808.8,2046.6z M1809.9,2046.6
				h6.3v-3.3c0-1.7-1.4-3.2-3.1-3.2s-3.2,1.4-3.2,3.1v0.1L1809.9,2046.6L1809.9,2046.6z M1817.4,2047.7h-8.7c-0.5,0-0.9,0.4-0.9,0.9
				v7.7c0,0.5,0.4,0.9,0.9,0.9h8.7c0.5,0,0.9-0.4,0.9-0.9v-7.7C1818.3,2048.1,1817.9,2047.7,1817.4,2047.7L1817.4,2047.7z"/>
			<path class="st1" d="M1813.1,2050.1c0.7,0,1.3,0.6,1.4,1.4c0,0.5-0.3,1-0.8,1.3l0.2,1.9h-1.5l0.2-1.9c-0.5-0.2-0.8-0.7-0.8-1.3
				C1811.8,2050.7,1812.4,2050.1,1813.1,2050.1z"/>
		</g>
	</g>
	<g transform="translate(13508.25 777)">
		<g transform="translate(-15298.334 -2788.781)">
			<path class="st2" d="M1808.8,2087.8h0.2v-3.3c0-2.3,1.9-4.2,4.2-4.2c2.3,0,4.2,1.9,4.2,4.2v3.3h0.1c1.1,0,1.9,0.9,1.9,1.9v7.7
				c0,1.1-0.9,1.9-1.9,1.9l0,0h-8.7c-1.1,0-1.9-0.9-1.9-1.9l0,0v-7.7C1806.8,2088.7,1807.7,2087.8,1808.8,2087.8z M1809.9,2087.8
				h6.3v-3.3c0-1.7-1.4-3.2-3.1-3.2s-3.2,1.4-3.2,3.1v0.1L1809.9,2087.8L1809.9,2087.8z M1817.4,2088.9h-8.7c-0.5,0-0.9,0.4-0.9,0.9
				v7.7c0,0.5,0.4,0.9,0.9,0.9h8.7c0.5,0,0.9-0.4,0.9-0.9v-7.7C1818.3,2089.3,1817.9,2088.9,1817.4,2088.9L1817.4,2088.9z"/>
			<path class="st3" d="M1813.1,2091.3c0.7,0,1.3,0.6,1.4,1.4c0,0.5-0.3,1-0.8,1.3l0.2,1.9h-1.5l0.2-1.9c-0.5-0.2-0.8-0.7-0.8-1.3
				C1811.8,2091.9,1812.4,2091.3,1813.1,2091.3z"/>
		</g>
	</g>
	<g id="Grupo_488" transform="translate(-1779.933 -1798.332)">
		<g id="Grupo_487" transform="translate(1779.933 1798.332)">
			<path id="Trazado_160" class="st4" d="M45.9,25.6c-1.1,0-1.9,0.9-1.9,1.9v18.6c0,1.1,0.9,1.9,1.9,1.9h13c1.1,0,1.9-0.9,1.9-1.9
				V27.5c0-1.1-0.9-1.9-1.9-1.9H45.9z M45.9,27h2.5c-0.1,0.2-0.1,0.3-0.1,0.5v0.3c0,1.1,0.9,1.9,1.9,1.9h4.3c1.1,0,1.9-0.9,1.9-1.9
				v-0.3c0-0.2,0-0.4-0.1-0.5h2.5c0.3,0,0.5,0.2,0.5,0.5l0,0v18.6c0,0.3-0.2,0.5-0.5,0.5l0,0h-13c-0.3,0-0.5-0.2-0.5-0.5l0,0V27.5
				C45.3,27.3,45.5,27.1,45.9,27C45.8,27,45.8,27,45.9,27z M50.2,27h4.4c0.3,0,0.5,0.2,0.5,0.5l0,0v0.3c0,0.3-0.2,0.5-0.5,0.5l0,0
				h-4.3c-0.3,0-0.5-0.2-0.5-0.5l0,0v-0.3C49.7,27.3,49.9,27.1,50.2,27L50.2,27L50.2,27z"/>
		</g>
		<path id="Trazado_161" class="st4" d="M1827.4,1831.7c-0.4,0-0.7,0.3-0.7,0.7s0.3,0.7,0.7,0.7h9.7c0.4,0,0.7-0.3,0.8-0.6
			s-0.3-0.7-0.6-0.8h-0.1L1827.4,1831.7L1827.4,1831.7z"/>
		<path id="Trazado_162" class="st4" d="M1827.4,1835.6c-0.4,0-0.7,0.3-0.7,0.7s0.3,0.7,0.7,0.7h9.7c0.4,0,0.7-0.3,0.7-0.7
			c0-0.4-0.3-0.7-0.7-0.7H1827.4C1827.5,1835.6,1827.4,1835.6,1827.4,1835.6z"/>
		<path id="Trazado_163" class="st4" d="M1827.5,1839.4c-0.4,0-0.7,0.3-0.7,0.7c0,0.4,0.3,0.7,0.7,0.7h9.7c0.4,0,0.7-0.3,0.7-0.7
			c0-0.4-0.3-0.7-0.7-0.7H1827.5z"/>
	</g>
	<g id="Grupo_488_1_" transform="translate(-1779.933 -1798.332)">
		<g id="Grupo_487_1_" transform="translate(1779.933 1798.332)">
			<path id="Trazado_160_1_" class="st2" d="M45.9,66.8c-1.1,0-1.9,0.9-1.9,1.9v18.6c0,1.1,0.9,1.9,1.9,1.9h13
				c1.1,0,1.9-0.9,1.9-1.9V68.8c0-1.1-0.9-1.9-1.9-1.9L45.9,66.8L45.9,66.8z M45.9,68.2h2.5c-0.1,0.2-0.1,0.3-0.1,0.5V69
				c0,1.1,0.9,1.9,1.9,1.9h4.3c1.1,0,1.9-0.9,1.9-1.9v-0.2c0-0.2,0-0.4-0.1-0.5h2.5c0.3,0,0.5,0.2,0.5,0.5l0,0v18.5
				c0,0.3-0.2,0.5-0.5,0.5l0,0h-13c-0.3,0-0.5-0.2-0.5-0.5l0,0V68.8C45.3,68.5,45.5,68.2,45.9,68.2C45.8,68.2,45.8,68.2,45.9,68.2z
				 M50.2,68.2h4.4c0.3,0,0.5,0.2,0.5,0.5l0,0V69c0,0.3-0.2,0.5-0.5,0.5l0,0h-4.3c-0.3,0-0.5-0.2-0.5-0.5l0,0v-0.2
				C49.7,68.5,49.9,68.2,50.2,68.2L50.2,68.2L50.2,68.2z"/>
		</g>
		<path id="Trazado_161_1_" class="st2" d="M1827.4,1872.9c-0.4,0-0.7,0.3-0.7,0.7s0.3,0.7,0.7,0.7h9.7c0.4,0,0.7-0.3,0.8-0.6
			s-0.3-0.7-0.6-0.8h-0.1L1827.4,1872.9L1827.4,1872.9z"/>
		<path id="Trazado_162_1_" class="st2" d="M1827.4,1876.7c-0.4,0-0.7,0.3-0.7,0.7s0.3,0.7,0.7,0.7h9.7c0.4,0,0.7-0.3,0.7-0.7
			c0-0.4-0.3-0.7-0.7-0.7H1827.4C1827.5,1876.7,1827.4,1876.7,1827.4,1876.7z"/>
		<path id="Trazado_163_1_" class="st2" d="M1827.5,1880.6c-0.4,0-0.7,0.3-0.7,0.7c0,0.4,0.3,0.7,0.7,0.7h9.7c0.4,0,0.7-0.3,0.7-0.7
			c0-0.4-0.3-0.7-0.7-0.7H1827.5z"/>
	</g>
	<g id="Grupo_485" transform="translate(-1932.835 -2398.896)">
		<g id="Grupo_484" transform="translate(1932.835 2398.896)">
			<path id="Trazado_159" class="st4" d="M84.8,25.7c-5.2,0-9.4,4.2-9.4,9.4s4.2,9.4,9.4,9.4h4.8l3.4,3.4c0.1,0.1,0.3,0.2,0.5,0.2
				c0.1,0,0.2,0,0.3-0.1c0.3-0.1,0.4-0.4,0.4-0.7V35.1C94.2,29.9,90,25.7,84.8,25.7z M92.8,45.6l-2.4-2.4c-0.1-0.1-0.3-0.2-0.5-0.2
				h-5c-4.4,0-7.9-3.5-7.9-7.9s3.5-7.9,7.9-7.9s7.9,3.5,7.9,7.9V45.6z"/>
			<circle id="Elipse_63" class="st4" cx="80.9" cy="35" r="1.1"/>
			<circle id="Elipse_64" class="st4" cx="84.8" cy="35" r="1.1"/>
			<circle id="Elipse_65" class="st4" cx="88.8" cy="35" r="1.1"/>
		</g>
	</g>
	<path id="Trazado_155" class="st4" d="M119,25.4c-0.4,0.1-0.7,0.4-0.7,0.8V27c-1.4,0.2-2.6,0.8-3.6,1.8c-1.1,1.2-1.8,2.6-2,4.2
		l-1,5.6c-0.1,0.8-0.6,1.5-1.3,1.8c-0.4,0.2-0.7,0.5-1,0.8c-0.4,0.5-0.6,1-0.6,1.6c0,1.1,0.9,2,2,2h4.3c0.1,2.1,2,3.7,4.1,3.6
		c1.9-0.1,3.4-1.6,3.6-3.6h4.3c1.1,0,2-0.9,2-2c0-0.6-0.2-1.1-0.6-1.6c-0.3-0.3-0.6-0.6-1-0.8c-0.7-0.3-1.2-1-1.3-1.8l-1-5.6
		c-0.3-1.6-1-3-2-4.2c-0.9-1-2.2-1.6-3.6-1.8v-0.8C119.8,25.7,119.4,25.4,119,25.4L119,25.4z M119.1,28.4c1.2,0,2.4,0.5,3.2,1.4
		c0.9,0.9,1.4,2.1,1.6,3.4l1,5.6c0.2,1.2,0.9,2.2,1.9,2.8c0.2,0.1,0.5,0.3,0.7,0.5c0.1,0.2,0.2,0.4,0.2,0.6c0,0.3-0.2,0.5-0.5,0.5
		l0,0h-16.3c-0.3,0-0.5-0.2-0.5-0.5l0,0c0-0.2,0-0.4,0.2-0.6s0.4-0.4,0.7-0.5c1-0.6,1.7-1.6,1.9-2.8l1-5.6c0.2-1.3,0.8-2.4,1.6-3.4
		C116.7,28.9,117.8,28.4,119.1,28.4L119.1,28.4z M116.8,44.8h4.5c-0.1,1.2-1.2,2.2-2.5,2C117.8,46.7,116.9,45.9,116.8,44.8z"/>
	<path id="Trazado_155_1_" class="st2" d="M119,65.1c-0.4,0.1-0.7,0.4-0.7,0.8v0.8c-1.4,0.2-2.6,0.8-3.6,1.8c-1.1,1.2-1.8,2.6-2,4.2
		l-1,5.6c-0.1,0.8-0.6,1.5-1.3,1.8c-0.4,0.2-0.7,0.5-1,0.8c-0.4,0.5-0.6,1-0.6,1.6c0,1.1,0.9,2,2,2h4.3c0.1,2.1,2,3.7,4.1,3.6
		c1.9-0.1,3.4-1.6,3.6-3.6h4.3c1.1,0,2-0.9,2-2c0-0.6-0.2-1.1-0.6-1.6c-0.3-0.3-0.6-0.6-1-0.8c-0.7-0.3-1.2-1-1.3-1.8l-1-5.6
		c-0.3-1.6-1-3-2-4.2c-0.9-1-2.2-1.6-3.6-1.8v-0.9C119.8,65.4,119.4,65.1,119,65.1L119,65.1z M119.1,68.1c1.2,0,2.4,0.5,3.2,1.4
		c0.9,0.9,1.4,2.1,1.6,3.4l1,5.6c0.2,1.2,0.9,2.2,1.9,2.8c0.2,0.1,0.5,0.3,0.7,0.5c0.1,0.2,0.2,0.4,0.2,0.6c0,0.3-0.2,0.5-0.5,0.5
		l0,0h-16.3c-0.3,0-0.5-0.2-0.5-0.5l0,0c0-0.2,0-0.4,0.2-0.6s0.4-0.4,0.7-0.5c1-0.6,1.7-1.6,1.9-2.8l1-5.6c0.2-1.3,0.8-2.4,1.6-3.4
		C116.7,68.6,117.8,68.1,119.1,68.1L119.1,68.1z M116.8,84.5h4.5c-0.1,1.2-1.2,2.2-2.5,2C117.8,86.4,116.9,85.6,116.8,84.5z"/>
	<g id="Grupo_474" transform="translate(6699.638 -4514.936)">
		<path id="Trazado_151" class="st5" d="M-6555.7,4545.5h16.6"/>
		<path id="Trazado_152" class="st5" d="M-6555.7,4551.8h16.6"/>
		<path id="Trazado_153" class="st5" d="M-6555.7,4558.1h16.6"/>
	</g>
	<g>
		<g id="Grupo_474_1_" transform="translate(6699.638 -4514.936)">
			<path id="Trazado_152_1_" class="st5" d="M-6553.1,4596l11.7-11.7"/>
		</g>
		<g id="Grupo_474_2_" transform="translate(6699.638 -4514.936)">
			<path id="Trazado_152_2_" class="st5" d="M-6553.1,4584.3l11.7,11.7"/>
		</g>
	</g>
	<g id="Grupo_572" transform="translate(6065.521 -5522.479)">
		<circle id="Elipse_74" class="st6" cx="-5877.4" cy="5559.3" r="13"/>
		<g id="Grupo_490" transform="translate(-6060.244 5527.756)">
			<g id="Grupo_473" transform="translate(0 0)">
				<path id="Trazado_137" class="st0" d="M185.6,23.9c-1.4,0-2.6,1.2-2.6,2.6c0,0.2,0,0.5,0.1,0.7l-3.8,2.4
					c-1.1-0.9-2.7-0.7-3.6,0.4s-0.7,2.7,0.4,3.6c0.9,0.7,2.3,0.7,3.2,0l3.8,2.4c-0.1,0.2-0.1,0.5-0.1,0.7c0,1.4,1.1,2.6,2.6,2.6
					s2.6-1.1,2.6-2.6c0-1.4-1.1-2.6-2.6-2.6c-0.8,0-1.5,0.3-2,0.9l-3.6-2.3c0.4-0.8,0.4-1.7,0-2.4c1.2-0.8,2.4-1.5,3.6-2.3
					c0.9,1.1,2.5,1.3,3.6,0.4s1.3-2.5,0.4-3.6C187.1,24.2,186.4,23.9,185.6,23.9L185.6,23.9z M185.6,24.9c0.9,0,1.5,0.7,1.5,1.5
					c0,0.9-0.7,1.5-1.5,1.5c-0.9,0-1.5-0.7-1.5-1.5l0,0C184.1,25.6,184.7,24.9,185.6,24.9L185.6,24.9L185.6,24.9z M177.7,30
					c0.9,0,1.5,0.7,1.5,1.5c0,0.9-0.7,1.5-1.5,1.5c-0.9,0-1.5-0.7-1.5-1.5S176.9,30,177.7,30L177.7,30L177.7,30z M185.6,35.2
					c0.9,0,1.5,0.7,1.5,1.5c0,0.9-0.7,1.5-1.5,1.5c-0.9,0-1.5-0.7-1.5-1.5l0,0C184.1,35.9,184.7,35.2,185.6,35.2L185.6,35.2z"/>
			</g>
		</g>
	</g>
	<g id="Grupo_808" transform="translate(0 -20)">
		<path id="Trazado_49" class="st6" d="M231.6,63.8l-4.2-4.2c2.3-2.8,1.9-6.9-0.9-9.2c-2.8-2.3-6.9-1.9-9.2,0.9s-1.9,6.9,0.9,9.2
			c2.4,2,5.9,2,8.3,0l4.2,4.2c0.3,0.2,0.7,0.2,0.9-0.1C231.8,64.4,231.8,64,231.6,63.8z M218.6,59.1c-2.1-2.1-2.1-5.4,0-7.4
			s5.4-2.1,7.4,0c2.1,2.1,2.1,5.4,0,7.4l0,0C224,61.2,220.7,61.2,218.6,59.1C218.7,59.2,218.7,59.2,218.6,59.1L218.6,59.1z"/>
	</g>
	<g id="Grupo_472" transform="translate(-1429.67 -1853.506)">
		<g id="Grupo_283" transform="translate(1444.045 1870.402)">
			<g id="Grupo_282">
				<path id="Trazado_92" class="st7" d="M283.5,30.1c-0.4,0-0.9-0.2-1.2-0.5l-6.7-6.7c-0.6-0.7-0.6-1.7,0.1-2.4
					c0.7-0.6,1.7-0.6,2.3,0l5.5,5.5l14-15.5c0.6-0.7,1.7-0.7,2.4,0c0.6,0.6,0.7,1.6,0.1,2.3l0,0l-15.2,16.8
					C284.5,29.8,284,30,283.5,30.1L283.5,30.1z"/>
			</g>
		</g>
		<g id="Grupo_284" transform="translate(1429.67 1853.506)">
			<path id="Trazado_93" class="st7" d="M302.1,63.9c-14.9,0-27-12.1-27-27s12.1-27,27-27s27,12.1,27,27S317,63.8,302.1,63.9z
				 M302.1,12.5c-13.5,0-24.4,10.9-24.4,24.4c0,13.4,11,24.4,24.4,24.4c13.5,0,24.4-11,24.4-24.4C326.5,23.4,315.6,12.5,302.1,12.5
				L302.1,12.5z"/>
		</g>
	</g>
	<g id="Grupo_1029" transform="translate(-115 -617.333)">
		<g id="Grupo_1028" transform="translate(-565 -231.667)">
			<g id="Grupo_284_1_" transform="translate(680 849)">
				<path id="Trazado_93_1_" class="st8" d="M371.1,64.1c-15.1,0-27.3-12.2-27.3-27.3S356,9.5,371.1,9.5s27.3,12.2,27.3,27.3l0,0
					C398.3,51.9,386.1,64.1,371.1,64.1z M371.1,12.2c-13.6,0-24.6,11-24.6,24.6s11,24.6,24.6,24.6s24.6-11,24.6-24.6
					S384.7,12.2,371.1,12.2L371.1,12.2z"/>
			</g>
			<g id="Grupo_1007" transform="translate(706.872 857.052) rotate(45)">
				<path id="Trazado_349" class="st9" d="M263.2-236.4v26.6"/>
				<path id="Trazado_350" class="st9" d="M276.5-223.1h-26.6"/>
			</g>
		</g>
	</g>
	<g id="Grupo_617" transform="translate(0 -0.105)">
		<g id="Elipse_53" transform="translate(0 0.105)">
			<circle class="st10" cx="428" cy="36.9" r="15"/>
			<circle class="st11" cx="428" cy="36.9" r="14.5"/>
		</g>
		<g id="Grupo_363" transform="translate(8.891 7.455)">
			<g id="Grupo_253" transform="translate(0 0)">
				<g id="Grupo_251" transform="translate(2.846)">
					<path id="Trazado_61" class="st12" d="M416.3,28.5c-1.8,0-3.3-1.5-3.3-3.3s1.5-3.3,3.3-3.3s3.3,1.5,3.3,3.3
						S418.1,28.5,416.3,28.5z M416.3,22.4c-1.5,0-2.8,1.2-2.8,2.8s1.2,2.8,2.8,2.8c1.5,0,2.8-1.2,2.8-2.8l0,0
						C419,23.6,417.8,22.4,416.3,22.4L416.3,22.4z"/>
				</g>
				<g id="Grupo_252" transform="translate(0 7.666)">
					<path id="Trazado_62" class="st12" d="M425.3,29.8H413V28c0.1-3.4,2.9-6.1,6.3-6c3.3,0.1,6,2.7,6,6V29.8z M413.5,29.3h11.2V28
						c0-3.1-2.5-5.6-5.6-5.6s-5.6,2.5-5.6,5.6l0,0V29.3z"/>
				</g>
			</g>
		</g>
	</g>
	<path id="Trazado_184" class="st6" d="M256,35.3c-0.4-0.3-0.9-0.3-1.2,0s-0.3,0.9,0,1.2l2.7,2.7h-7c-1.2,0-2.2-1-2.2-2.2l0,0v-7.7
		c0-0.5-0.4-0.9-0.9-0.9s-0.9,0.4-0.9,0.9l0,0V37c0,2.2,1.8,4,4,4l0,0h7l-2.7,2.7c-0.3,0.4-0.3,0.9,0,1.2s0.9,0.3,1.2,0l0,0l4.2-4.2
		c0.3-0.3,0.3-0.9,0-1.2l0,0L256,35.3z"/>
	<g id="Grupo_485_1_" transform="translate(-1932.835 -2398.896)">
		<g id="Grupo_484_1_" transform="translate(1932.835 2398.896)">
			<path id="Trazado_159_1_" class="st2" d="M84.8,65.4c-5.2,0-9.4,4.2-9.4,9.4c0,5.2,4.2,9.4,9.4,9.4h4.8l3.4,3.4
				c0.1,0.1,0.3,0.2,0.5,0.2c0.1,0,0.2,0,0.3-0.1c0.3-0.1,0.4-0.4,0.4-0.7V74.8C94.2,69.6,90,65.4,84.8,65.4z M92.8,85.3l-2.4-2.4
				c-0.1-0.1-0.3-0.2-0.5-0.2h-5c-4.4,0-7.9-3.5-7.9-7.9s3.5-7.9,7.9-7.9s7.9,3.5,7.9,7.9V85.3z"/>
			<circle id="Elipse_63_1_" class="st2" cx="80.9" cy="74.7" r="1.1"/>
			<circle id="Elipse_64_1_" class="st2" cx="84.8" cy="74.7" r="1.1"/>
			<circle id="Elipse_65_1_" class="st2" cx="88.8" cy="74.7" r="1.1"/>
		</g>
	</g>
	<g id="Grupo_325" transform="translate(0 10.209) rotate(-90)">
		<path id="Trazado_105" class="st0" d="M-21.7,463.4l-4.4-4.3l0,0c0,0,0,0-0.1,0l0,0c0,0,0,0-0.1,0s0,0-0.1,0l0,0c0,0,0,0-0.1,0
			c0,0,0,0-0.1,0l0,0c-0.1,0-0.2,0-0.3,0l0,0c0,0,0,0-0.1,0c0,0,0,0-0.1,0l0,0c0,0,0,0-0.1,0c0,0,0,0-0.1,0l0,0c0,0,0,0-0.1,0l0,0
			l-4.4,4.3c-0.3,0.2-0.4,0.7-0.1,1c0.2,0.3,0.7,0.4,1,0.1l0.1-0.1l3.2-3.2V474c0,0.4,0.4,0.7,0.8,0.6c0.3,0,0.6-0.3,0.6-0.6v-12.8
			l3.2,3.2c0.2,0.3,0.7,0.3,1,0.1s0.3-0.7,0.1-1C-21.7,463.5-21.7,463.4-21.7,463.4z"/>
	</g>
	<g id="Grupo_325_1_" transform="translate(0 10.209) rotate(-90)">
		<path id="Trazado_105_1_" class="st0" d="M-31.5,506.2l4.4,4.3l0,0c0,0,0,0,0.1,0l0,0c0,0,0,0,0.1,0c0,0,0,0,0.1,0l0,0
			c0,0,0,0,0.1,0c0,0,0,0,0.1,0l0,0c0.1,0,0.2,0,0.3,0l0,0c0,0,0,0,0.1,0c0,0,0,0,0.1,0l0,0c0,0,0,0,0.1,0c0,0,0,0,0.1,0l0,0
			c0,0,0,0,0.1,0l0,0l4.4-4.3c0.3-0.2,0.4-0.7,0.1-1c-0.2-0.3-0.7-0.4-1-0.1l-0.1,0.1l-3.2,3.2v-12.8c0-0.4-0.4-0.7-0.8-0.6
			c-0.3,0-0.6,0.3-0.6,0.6v12.8l-3.2-3.2c-0.2-0.3-0.7-0.3-1-0.1c-0.3,0.2-0.3,0.7-0.1,1C-31.6,506.2-31.6,506.2-31.5,506.2z"/>
	</g>
	<g id="Grupo_355" transform="translate(237.296 1.082)">
		<path id="Trazado_107" class="st13" d="M-28.1,80.9c-0.2,0-0.4-0.2-0.4-0.4c0-0.1,0-0.2,0.1-0.3l6.7-6.2l-6.7-6.2
			c-0.2-0.1-0.2-0.4,0-0.5c0.1-0.2,0.4-0.2,0.5,0l0,0l7,6.5c0.2,0.1,0.2,0.4,0,0.5l0,0l-7,6.5C-27.9,80.9-28,80.9-28.1,80.9z"/>
	</g>
	<g id="Grupo_355_1_" transform="translate(237.296 1.082)">
		<path id="Trazado_107_1_" class="st14" d="M-51.5,89.3c0.2,0,0.4,0.2,0.4,0.4c0,0.1,0,0.2-0.1,0.3l-6.7,6.2l6.7,6.2
			c0.2,0.1,0.2,0.4,0,0.5c-0.1,0.2-0.4,0.2-0.5,0l0,0l-7-6.5c-0.2-0.1-0.2-0.4,0-0.5l0,0l7-6.5C-51.7,89.4-51.6,89.3-51.5,89.3z"/>
	</g>
	<g id="Grupo_356_1_" transform="translate(1 1.939)">
		<path id="Trazado_107-2_1_" class="st14" d="M208.2,88.5c-0.2,0-0.4,0.2-0.4,0.4c0,0.1,0,0.2,0.1,0.3l6.7,6.2l-6.7,6.2
			c-0.2,0.1-0.2,0.4,0,0.5c0.1,0.2,0.4,0.2,0.5,0l0,0l7-6.5c0.2-0.1,0.2-0.4,0-0.5l0,0l-7-6.5C208.4,88.5,208.3,88.5,208.2,88.5z"/>
	</g>
	<g id="Grupo_355_2_" transform="translate(237.296 1.082)">
		<path id="Trazado_107_2_" class="st13" d="M-51.8,80.8l-7-6.5l0,0c-0.1-0.2-0.1-0.4,0-0.5l7-6.5l0,0c0.2-0.1,0.4-0.1,0.5,0
			c0.1,0.2,0.1,0.4,0,0.5L-58,74l6.7,6.2c0.1,0.1,0.1,0.2,0.1,0.3c0,0.2-0.2,0.4-0.4,0.4C-51.6,80.9-51.7,80.9-51.8,80.8z"/>
	</g>
</g>
<g id="Grupo_501" transform="translate(-655.9 -1102.9)">
	<circle id="Elipse_19" class="st6" cx="896.7" cy="1176.5" r="9"/>
	<path id="Trazado_54" class="st0" d="M893.9,1176.9v-3.8c0-0.2,0.2-0.4,0.4-0.4c0.1,0,0.1,0,0.2,0.1l3.3,1.9l3.3,1.9
		c0.2,0.1,0.3,0.4,0.2,0.6c0,0.1-0.1,0.1-0.2,0.2l-3.3,1.9l-3.3,1.9c-0.2,0.1-0.5,0-0.6-0.2c0-0.1-0.1-0.1-0.1-0.2L893.9,1176.9
		L893.9,1176.9z"/>
</g>
<g id="Grupo_1002">
	<g id="Grupo_983" transform="translate(0 6.457)">
		<g id="Grupo_982">
			<path id="Trazado_339" class="st15" d="M276.6,80.4c-0.2,0-0.4,0.2-0.4,0.4l0,0v2.6c0,1-0.8,1.9-1.9,1.9h-4
				c-0.2,0-0.4,0.2-0.4,0.4l0,0v0.7l-0.9-0.9c-0.1-0.1-0.2-0.2-0.3-0.2h-2.4c-1,0-1.9-0.8-1.9-1.9v-5.7c0-1,0.8-1.9,1.9-1.9h3.7
				c0.2,0,0.4-0.2,0.4-0.4S270.2,75,270,75l0,0h-3.7c-1.4,0-2.6,1.2-2.6,2.6l0,0v5.7c0,1.4,1.2,2.6,2.6,2.6l0,0h2.2l1.5,1.5
				c0.1,0.1,0.4,0.1,0.5,0s0.1-0.2,0.1-0.3v-1.3h3.6c1.4,0,2.6-1.2,2.6-2.6l0,0v-2.6C277,80.5,276.8,80.4,276.6,80.4z"/>
		</g>
	</g>
	<g id="Grupo_985" transform="translate(7.273)">
		<g id="Grupo_984">
			<path id="Trazado_340" class="st15" d="M270.1,75h-0.9c-3,0-5.4,2.5-5.3,5.5c0,2.9,2.4,5.3,5.3,5.3h0.9c0.5,0,0.9-0.1,1.4-0.2
				l1.4,1.4c0.1,0.1,0.4,0.1,0.5,0s0.1-0.2,0.1-0.3v-2.1c0.6-0.5,1.1-1.1,1.4-1.7c0.4-0.8,0.6-1.6,0.6-2.4
				C275.5,77.4,273.1,75,270.1,75z M272.9,84.1c-0.1,0.1-0.1,0.2-0.1,0.3v1.4l-0.9-0.9c-0.1-0.1-0.2-0.1-0.4-0.1
				c-0.4,0.1-0.9,0.2-1.4,0.2h-0.9c-2.6-0.1-4.6-2.2-4.5-4.8c0.1-2.5,2.1-4.4,4.5-4.5h0.9c2.6,0,4.7,2.1,4.7,4.6
				C274.8,81.8,274.1,83.2,272.9,84.1L272.9,84.1z"/>
		</g>
	</g>
	<g id="Grupo_987" transform="translate(11.669 2.6)">
		<g id="Grupo_986">
			<path id="Trazado_341" class="st15" d="M266.9,76.5c-0.1-0.9-0.8-1.5-1.7-1.5c-0.8,0.1-1.5,0.7-1.5,1.6c0,0.2,0.2,0.4,0.4,0.4
				s0.4-0.2,0.4-0.4c0-0.5,0.4-0.8,0.8-0.8c0,0,0,0,0.1,0c0.5,0,0.8,0.4,0.8,0.9c0,0.4-0.3,0.7-0.6,0.8c-0.3,0.1-0.6,0.4-0.6,0.7V79
				c0,0.2,0.2,0.4,0.4,0.4s0.4-0.2,0.4-0.4l0,0v-0.9C266.5,77.9,267,77.2,266.9,76.5z"/>
		</g>
	</g>
	<g id="Grupo_989" transform="translate(12.87 7.657)">
		<g id="Grupo_988">
			<path id="Trazado_342" class="st15" d="M264.4,75.1c-0.1-0.1-0.4-0.1-0.5,0s-0.1,0.4,0,0.5s0.4,0.1,0.5,0s0.1-0.2,0.1-0.3
				C264.5,75.3,264.5,75.2,264.4,75.1z"/>
		</g>
	</g>
	<g id="Grupo_991" transform="translate(2.004 11.504)">
		<g id="Grupo_990">
			<path id="Trazado_343" class="st15" d="M272,75h-7.8c-0.2,0-0.4,0.2-0.4,0.4s0.2,0.4,0.4,0.4h7.8c0.2,0,0.4-0.2,0.4-0.4
				S272.2,75,272,75L272,75z"/>
		</g>
	</g>
	<g id="Grupo_993" transform="translate(9.834 13.582)">
		<g id="Grupo_992">
			<path id="Trazado_344" class="st15" d="M264.4,75.1c-0.1-0.1-0.4-0.1-0.5,0s-0.1,0.4,0,0.5s0.4,0.1,0.5,0s0.1-0.2,0.1-0.3
				C264.5,75.3,264.5,75.2,264.4,75.1z"/>
		</g>
	</g>
	<g id="Grupo_995" transform="translate(2.004 13.582)">
		<g id="Grupo_994">
			<path id="Trazado_345" class="st15" d="M270.5,75h-6.4c-0.2,0-0.4,0.2-0.4,0.4s0.2,0.4,0.4,0.4h6.4c0.2,0,0.4-0.2,0.4-0.4
				S270.7,75,270.5,75L270.5,75z"/>
		</g>
	</g>
	<g id="Grupo_997" transform="translate(2.004 9.426)">
		<g id="Grupo_996">
			<path id="Trazado_346" class="st15" d="M269.6,75h-5.4c-0.2,0-0.4,0.2-0.4,0.4s0.2,0.4,0.4,0.4h5.4c0.2,0,0.4-0.2,0.4-0.4
				S269.8,75,269.6,75z"/>
		</g>
	</g>
</g>
<g id="Grupo_999">
	<g id="Grupo_998">
		<path id="Trazado_347" class="st15" d="M302.2,77.2c-4.4,0-8,3.6-8,8s3.6,8,8,8s8-3.6,8-8C310.2,80.7,306.6,77.2,302.2,77.2z
			 M302.2,92c-3.8,0-6.9-3.1-6.9-6.9s3.1-6.9,6.9-6.9s6.9,3.1,6.9,6.9C309,89,305.9,92,302.2,92L302.2,92z"/>
	</g>
</g>
<g id="Grupo_1001" transform="translate(2.851 4.15)">
	<g id="Grupo_1000">
		<path id="Trazado_348" class="st15" d="M304.2,77.3c-0.2-0.2-0.6-0.2-0.9,0l0,0l-6,6l-2.1-2.1c-0.3-0.3-0.7-0.2-0.9,0
			c-0.2,0.2-0.2,0.6,0,0.9l0,0l2.6,2.6c0.3,0.3,0.7,0.3,0.9,0l6.4-6.4C304.5,78,304.5,77.6,304.2,77.3z"/>
	</g>
</g>
<g id="Grupo_977" transform="translate(-2 -1.98)">
	<path id="Trazado_14" class="st15" d="M333.2,79.2c-4.4,0-8,3.6-8,8c0,4.4,3.6,8,8,8s8-3.6,8-8l0,0
		C341.2,82.8,337.6,79.2,333.2,79.2z M333.2,80.3c3.8,0,6.9,3.1,6.9,6.9s-3.1,6.9-6.9,6.9s-6.9-3.1-6.9-6.9c0,0,0,0,0,0
		C326.3,83.4,329.4,80.4,333.2,80.3C333.2,80.3,333.2,80.3,333.2,80.3z"/>
	<path id="Trazado_15" class="st15" d="M333.2,82.6c-0.3,0-0.6,0.3-0.6,0.6v4c0,0.2,0.1,0.3,0.2,0.4l2.8,2.8c0.2,0.2,0.6,0.2,0.8,0
		s0.2-0.6,0-0.8l0,0l0,0l-2.7-2.7v-3.8C333.8,82.9,333.5,82.6,333.2,82.6C333.2,82.6,333.2,82.6,333.2,82.6L333.2,82.6z"/>
</g>
</svg>
